<svg width="1440" height="944" viewBox="0 0 1440 944" fill="none" xmlns="http://www.w3.org/2000/svg">
<g clip-path="url(#clip0_2043_157)">
<g clip-path="url(#clip1_2043_157)">
<path d="M1034.07 1339.7C760.18 1349.25 531.457 1165.29 523.206 928.803C514.955 692.317 730.3 492.86 1004.19 483.304C1278.09 473.747 1506.81 657.711 1515.06 894.197C1523.31 1130.68 1307.97 1330.14 1034.07 1339.7Z" fill="#5B61B2"/>
<path d="M346.232 1217.36C-12.0731 1229.87 -311.868 972.551 -323.379 642.636C-334.89 312.721 -53.7577 35.137 304.548 22.6355C662.853 10.1341 962.648 267.449 974.159 597.364C985.67 927.28 704.538 1204.86 346.232 1217.36Z" fill="#5B61B2"/>
<path d="M1300.57 367.89C1255.04 369.478 1216.88 334.722 1215.33 290.259C1213.78 245.796 1249.43 208.465 1294.95 206.876C1340.48 205.288 1378.64 240.044 1380.19 284.507C1381.74 328.97 1346.09 366.301 1300.57 367.89Z" fill="#5B61B2"/>
<path d="M1184.3 439.061C1168.45 439.614 1155.16 427.513 1154.62 412.032C1154.08 396.552 1166.49 383.554 1182.34 383.001C1198.19 382.448 1211.48 394.549 1212.02 410.03C1212.56 425.51 1200.15 438.508 1184.3 439.061Z" fill="#5B61B2"/>
<path d="M1259.65 422.494C1250.07 422.829 1242.04 415.513 1241.71 406.155C1241.38 396.797 1248.89 388.94 1258.47 388.605C1268.05 388.271 1276.08 395.586 1276.41 404.944C1276.74 414.303 1269.23 422.16 1259.65 422.494Z" fill="#5B61B2"/>
<path d="M1244.5 96L1235.72 119.722L1212 128.5L1235.72 137.278L1244.5 161L1253.28 137.278L1277 128.5L1253.28 119.722L1244.5 96Z" fill="#DEC1DB"/>
<path d="M1199.5 154L1190.72 177.722L1167 186.5L1190.72 195.278L1199.5 219L1208.28 195.278L1232 186.5L1208.28 177.722L1199.5 154Z" fill="#DEC1DB"/>
<path d="M1342.5 411L1333.72 434.722L1310 443.5L1333.72 452.278L1342.5 476L1351.28 452.278L1375 443.5L1351.28 434.722L1342.5 411Z" fill="#DEC1DB"/>
</g>
</g>
<defs>
<clipPath id="clip0_2043_157">
<rect width="1440" height="944" fill="white" transform="matrix(-1 0 0 1 1440 0)"/>
</clipPath>
<clipPath id="clip1_2043_157">
<rect width="1440" height="1357" fill="white" transform="matrix(-1 0 0 1 1440 0)"/>
</clipPath>
</defs>
</svg>
