<svg width="112" height="155" viewBox="0 0 112 155" fill="none" xmlns="http://www.w3.org/2000/svg">
<path d="M110.294 118.595C112.12 116.523 111.921 113.363 109.849 111.538L76.0883 81.7852C74.0166 79.9594 70.857 80.1588 69.0313 82.2305C67.2055 84.3023 67.4049 87.4618 69.4766 89.2876L99.4862 115.734L73.0396 145.744C71.2138 147.816 71.4132 150.975 73.4849 152.801C75.5567 154.627 78.7162 154.427 80.542 152.355L110.294 118.595ZM17.0116 7.01945C17.941 4.41911 16.5864 1.55773 13.9861 0.628359C11.3857 -0.301009 8.52434 1.05358 7.59497 3.65391L12.3033 5.33668L17.0116 7.01945ZM106.543 115.289L106.228 110.299C52.7905 113.671 28.0737 96.481 17.6156 75.4913C6.81402 53.8124 10.1692 26.1644 17.0116 7.01945L12.3033 5.33668L7.59497 3.65391C0.311165 24.0337 -3.86121 54.8105 8.66504 79.9509C21.5347 105.781 51.001 123.804 106.858 120.279L106.543 115.289Z" fill="#6DA0E1"/>
</svg>
